<?xml version="1.0" encoding="utf-8"?>
<!-- Generator: Adobe Illustrator 27.8.1, SVG Export Plug-In . SVG Version: 6.00 Build 0)  -->
<svg version="1.1" id="Layer_1" xmlns="http://www.w3.org/2000/svg" xmlns:xlink="http://www.w3.org/1999/xlink" x="0px" y="0px"
	 viewBox="0 0 512 512" style="enable-background:new 0 0 512 512;" xml:space="preserve">
<style type="text/css">
	.st0{fill:#FFFFFF;}
</style>
<path class="st0" d="M256,512c141.4,0,256-114.6,256-256S397.4,0,256,0S0,114.6,0,256S114.6,512,256,512z M385,231
	c9.4,9.4,9.4,24.6,0,33.9s-24.6,9.4-33.9,0l-71-71V376c0,13.3-10.7,24-24,24s-24-10.7-24-24V193.9l-71,71c-9.4,9.4-24.6,9.4-33.9,0
	s-9.4-24.6,0-33.9L239,119c9.4-9.4,24.6-9.4,33.9,0L385,231z"/>
</svg>
