<?xml version="1.0" encoding="utf-8"?>
<!-- Generator: Adobe Illustrator 27.8.1, SVG Export Plug-In . SVG Version: 6.00 Build 0)  -->
<svg version="1.1" id="Layer_1" xmlns="http://www.w3.org/2000/svg" xmlns:xlink="http://www.w3.org/1999/xlink" x="0px" y="0px"
	 viewBox="0 0 512 512" style="enable-background:new 0 0 512 512;" xml:space="preserve">
<style type="text/css">
	.st0{fill:#FFFFFF;}
</style>
<path class="st0" d="M371.1,13.1c-1-5.3-4.6-9.8-9.6-11.9s-10.7-1.5-15.2,1.6L256,65.1L165.7,2.8c-4.5-3.1-10.2-3.7-15.2-1.6
	s-8.6,6.6-9.6,11.9L121,121L13.1,140.8c-5.3,1-9.8,4.6-11.9,9.6s-1.5,10.7,1.6,15.2L65.1,256L2.8,346.3c-3.1,4.5-3.7,10.2-1.6,15.2
	s6.6,8.6,11.9,9.6L121,391l19.8,107.9c1,5.3,4.6,9.8,9.6,11.9c5,2.1,10.7,1.5,15.2-1.6l90.4-62.3l90.3,62.3
	c4.5,3.1,10.2,3.7,15.2,1.6s8.6-6.6,9.6-11.9L391,391l107.9-19.8c5.3-1,9.8-4.6,11.9-9.6c2.1-5,1.5-10.7-1.6-15.2L446.9,256
	l62.3-90.3c3.1-4.5,3.7-10.2,1.6-15.2s-6.6-8.6-11.9-9.6L391,121L371.1,13.1z M265.1,97.7l79.1-54.5l17.4,94.5
	c1.2,6.5,6.3,11.6,12.8,12.8l94.5,17.4L414.4,247c-3.8,5.5-3.8,12.7,0,18.2l54.5,79.1l-94.5,17.4c-6.5,1.2-11.6,6.3-12.8,12.8
	L344.2,469l-79.1-54.5c-5.5-3.8-12.7-3.8-18.2,0L167.8,469l-17.4-94.5c-1.2-6.5-6.3-11.6-12.8-12.8l-94.4-17.6L97.7,265
	c3.8-5.5,3.8-12.7,0-18.2l-54.5-79l94.5-17.4c6.5-1.2,11.6-6.3,12.8-12.8l17.4-94.5L247,97.6c5.5,3.8,12.7,3.8,18.2,0L265.1,97.7z
	 M256,384c70.7,0,128-57.3,128-128s-57.3-128-128-128s-128,57.3-128,128S185.3,384,256,384z M160,256c0-53,43-96,96-96s96,43,96,96
	s-43,96-96,96S160,309,160,256z"/>
</svg>
