<?xml version="1.0" encoding="utf-8"?>
<!-- Generator: Adobe Illustrator 27.8.1, SVG Export Plug-In . SVG Version: 6.00 Build 0)  -->
<svg version="1.1" id="Layer_1" xmlns="http://www.w3.org/2000/svg" xmlns:xlink="http://www.w3.org/1999/xlink" x="0px" y="0px"
	 viewBox="0 0 512 512" style="enable-background:new 0 0 512 512;" xml:space="preserve">
<style type="text/css">
	.st0{fill:#FFFFFF;}
</style>
<path class="st0" d="M304,0c8.8,0,16,7.2,16,16v32h32c8.8,0,16,7.2,16,16s-7.2,16-16,16h-32v32c0,8.8-7.2,16-16,16s-16-7.2-16-16V80
	h-32c-8.8,0-16-7.2-16-16s7.2-16,16-16h32V16C288,7.2,295.2,0,304,0z M156.6,163.9C85.3,180,32,243.8,32,320.2
	c0,88.5,71.6,160.2,159.8,160.2c25.7,0,50-6.1,71.5-16.9c-87.6-11.3-155.1-86.4-155.1-177.2C108.2,238.9,126.6,195.9,156.6,163.9
	L156.6,163.9z M0,320.2C0,214.1,85.8,128,191.8,128c5.5,0,10.9,0.2,16.3,0.7c7,0.6,12.8,5.7,14.3,12.5s-1.6,13.9-7.7,17.3
	c-44.4,25.2-74.4,73-74.4,127.8c0,81,65.5,146.6,146.2,146.6c8.6,0,17-0.7,25.1-2.2c6.9-1.2,13.8,2.2,17,8.5s1.9,13.8-3.1,18.7
	c-34.5,33.6-81.7,54.4-133.6,54.4C85.8,512.4,0,426.3,0,320.2z M432,160v64h64c8.8,0,16,7.2,16,16s-7.2,16-16,16h-64v64
	c0,8.8-7.2,16-16,16s-16-7.2-16-16v-64h-64c-8.8,0-16-7.2-16-16s7.2-16,16-16h64v-64c0-8.8,7.2-16,16-16S432,151.2,432,160z"/>
</svg>
